PathFileType  4	(X/Y/Z) C:\Users\antoi\Documents\MyRepositories\mobilecap\ResultsAnalysis
DataRate	CameraRate	NumFrames	NumMarkers	Units	OrigDataRate	OrigDataStartFrame	OrigNumFrames
100.0	100.0	7	51	mm	100.0	156	311
Frame#	Time	r_knee			r_shank_antsup			r_ankle			r_calc			r_5meta			r_toe			L_knee			L_shank_antsup			L_ankle			L_calc			L_5meta			L_toe			r_sh2			r_sh3			r_sh4			L_sh2			L_sh3			r_thigh1			r_thigh2			r_thigh3			r_thigh4			r_thigh5			L_thigh1			L_thigh2			L_thigh3			L_thigh4			r.ASIS			r.PSIS			L.ASIS			L.PSIS			C7			R_Shoulder			L_Shoulder			R_Sternum			L_Sternum			R_humerus			R_elbow_med			R_elbow_lat			R_forearm			R_wrist_radius			R_wrist_ulna			L_humerus			L_elbow_med			L_elbow_lat			L_forearm			L_wrist_radius			L_wrist_ulna			R_HJC			L_HJC			R_HJC_reg			L_HJC_reg			
		X1	Y1	Z1	X2	Y2	Z2	X3	Y3	Z3	X4	Y4	Z4	X5	Y5	Z5	X6	Y6	Z6	X7	Y7	Z7	X8	Y8	Z8	X9	Y9	Z9	X10	Y10	Z10	X11	Y11	Z11	X12	Y12	Z12	X13	Y13	Z13	X14	Y14	Z14	X15	Y15	Z15	X16	Y16	Z16	X17	Y17	Z17	X18	Y18	Z18	X19	Y19	Z19	X20	Y20	Z20	X21	Y21	Z21	X22	Y22	Z22	X23	Y23	Z23	X24	Y24	Z24	X25	Y25	Z25	X26	Y26	Z26	X27	Y27	Z27	X28	Y28	Z28	X29	Y29	Z29	X30	Y30	Z30	X31	Y31	Z31	X32	Y32	Z32	X33	Y33	Z33	X34	Y34	Z34	X35	Y35	Z35	X36	Y36	Z36	X37	Y37	Z37	X38	Y38	Z38	X39	Y39	Z39	X40	Y40	Z40	X41	Y41	Z41	X42	Y42	Z42	X43	Y43	Z43	X44	Y44	Z44	X45	Y45	Z45	X46	Y46	Z46	X47	Y47	Z47	X48	Y48	Z48	X49	Y49	Z49	X50	Y50	Z50	X51	Y51	Z51	

156	1.55000000	-175.09008	445.99279	-402.35696	-134.01052	373.72441	-410.22188	-315.92113	89.33608	-443.86741	-380.67089	68.09301	-486.81229	-218.33865	39.71923	-425.70903	-176.07961	53.57171	-479.81762	-166.84099	490.50086	-760.27045	-112.06587	410.27798	-752.61378	-199.42897	119.08043	-803.27382	-270.26796	94.33602	-770.11870	-110.08546	40.62862	-808.34495	-66.81336	52.59960	-749.45635	-189.09509	274.52706	-407.22945	-194.02198	407.87063	-377.53910	-259.56715	311.78303	-377.85338	-182.58471	440.10429	-800.76943	-196.16688	319.64495	-826.48467	-319.89111	654.28646	-357.63763	-234.89867	580.17568	-370.60490	-308.27966	496.39420	-393.68238	-396.73826	573.51936	-376.45093	-263.19482	515.95144	-370.00016	-351.90359	694.28914	-764.52938	-243.27453	608.30944	-765.50827	-425.90495	609.70391	-751.97172	-314.07329	524.00324	-735.67505	-350.28715	774.59181	-443.41005	-552.63696	849.24576	-499.29234	-374.53853	797.17030	-663.17239	-560.83915	847.57221	-580.90998	-318.49772	1250.11908	-485.28866	-258.52559	1201.90964	-362.50898	-287.08603	1238.78294	-610.50178	-208.63730	1154.86581	-473.61726	-214.15927	1158.60165	-513.56889	-218.41713	1138.42711	-280.33818	-235.19327	962.20148	-144.74293	-199.43123	1016.16680	-119.98242	-107.04857	983.62763	-118.90259	-0.96873	891.64123	-92.74420	-10.76140	898.09396	-54.78523	-292.21222	1229.78331	-716.93192	-303.03998	1098.56926	-898.04362	-304.58479	1168.42792	-904.71833	-196.89594	1180.55906	-927.39012	-73.15741	1163.48152	-951.08544	-84.75445	1154.50148	-987.91671	-447.10381	704.94188	-449.79310	-463.10125	723.46095	-655.83950	-436.89957	736.61339	-463.86164	-451.48004	733.66994	-609.74469	
157	1.56000000	-165.59497	437.31935	-399.71878	-122.02725	366.34582	-410.32754	-313.88872	91.10689	-443.30739	-379.47592	71.40367	-487.16396	-218.13414	39.68636	-425.85523	-175.05301	53.21257	-479.92817	-153.75923	481.57732	-758.14677	-101.71873	396.97214	-749.44631	-208.98471	113.64726	-794.43152	-276.96954	82.98400	-760.98253	-114.33536	42.60903	-805.29480	-71.48203	53.58033	-746.06113	-176.18408	266.70614	-408.55901	-181.94768	399.27779	-376.85157	-246.62887	302.60340	-378.49738	-170.14874	429.68245	-799.10164	-190.92225	309.61275	-821.06831	-316.05552	642.58326	-356.06947	-228.15013	571.75278	-367.87014	-297.46215	485.54933	-392.19647	-389.21873	558.43818	-376.11906	-253.59913	506.20254	-365.35626	-346.70366	679.48707	-765.26202	-235.94407	596.40585	-762.98512	-418.46514	593.66973	-749.26519	-305.02241	510.57835	-731.43907	-346.97648	764.67897	-440.92349	-549.87248	831.09958	-505.69851	-368.64189	775.89577	-663.70897	-553.97962	832.30155	-586.31384	-309.01186	1231.49732	-486.65265	-248.25927	1180.44297	-364.29793	-276.82318	1218.05650	-611.67990	-201.34341	1129.67231	-473.02635	-206.74582	1135.19632	-514.30050	-208.81961	1116.20902	-284.12112	-224.25239	937.01811	-152.74590	-189.16181	991.05583	-125.10721	-96.67425	956.91034	-123.62984	7.62230	861.64807	-97.92938	-2.13357	868.18928	-59.46491	-280.00777	1207.59077	-718.36728	-290.31423	1072.82277	-896.62363	-291.48507	1141.92969	-905.21376	-182.84199	1152.03827	-927.15088	-58.99406	1131.28564	-948.82985	-70.37026	1122.14744	-985.78816	-443.60728	693.02228	-447.38895	-455.63224	702.77646	-654.32880	-433.78687	713.16434	-467.94317	-441.33942	715.35657	-615.62803	
158	1.57000000	-156.56544	427.89770	-399.92146	-112.88445	356.53994	-410.75604	-312.53678	92.29728	-443.43476	-378.66271	73.55830	-487.85623	-218.09270	39.76024	-426.00597	-174.21427	52.94064	-480.36132	-141.15840	473.86149	-757.22678	-93.95024	385.97922	-748.49814	-216.32387	109.13135	-786.23674	-281.71736	74.06391	-750.91982	-118.76350	43.49297	-802.67105	-74.45501	54.50360	-744.04950	-168.80579	257.75429	-412.57954	-172.05290	389.42793	-375.90182	-238.00529	293.69265	-379.73043	-161.83372	422.18899	-797.15030	-191.15304	302.89900	-814.43812	-312.40472	628.67809	-354.94420	-222.61381	560.10090	-365.89778	-288.95512	473.44264	-395.85759	-382.80212	542.41704	-376.24995	-246.35956	493.96424	-367.32845	-342.30864	665.54726	-765.83831	-228.74996	586.90966	-762.04630	-410.81031	577.74495	-746.74889	-294.48346	498.73285	-728.64255	-344.47308	754.24566	-438.60123	-546.64969	814.77480	-509.80675	-362.12290	757.78889	-661.76893	-548.00532	817.60790	-589.90395	-300.15196	1213.58736	-487.96661	-238.74769	1160.64388	-366.11919	-267.61709	1199.00769	-612.89899	-193.54973	1106.69644	-473.03016	-198.02405	1113.93122	-515.38099	-199.17201	1094.83346	-287.49445	-215.32790	914.61710	-161.27073	-179.93226	967.38291	-129.76708	-87.49927	931.83959	-128.51625	14.78433	832.86845	-104.55305	5.45829	839.69164	-65.88099	-267.93133	1186.75110	-719.57199	-277.15383	1048.43757	-895.13439	-277.20610	1117.30689	-905.86055	-167.42653	1124.32931	-927.11958	-44.00454	1099.02192	-946.47111	-55.20772	1090.01477	-983.78761	-440.60328	681.07711	-445.04728	-448.27826	684.99684	-652.38180	-429.93156	694.40186	-469.76226	-432.47051	699.59909	-617.43420	
159	1.58000000	-146.70990	420.59171	-401.20675	-105.70938	348.09889	-410.92281	-312.01544	92.40216	-443.71507	-378.50634	74.03433	-488.43442	-218.20583	39.76813	-426.02735	-174.00187	52.86546	-480.74865	-131.04230	467.36791	-757.03079	-87.84896	378.23855	-750.23092	-219.49680	105.84864	-779.88681	-283.59063	68.81434	-742.45254	-121.87878	43.82519	-801.14216	-75.20482	55.00798	-743.68057	-166.36508	251.68675	-415.39023	-163.48090	383.38759	-375.77250	-233.60856	290.71367	-380.54205	-157.36942	417.04796	-794.43370	-192.71529	298.78753	-808.87540	-307.46483	613.68120	-354.12738	-216.49074	546.56782	-365.61405	-281.74061	460.40460	-401.48565	-376.44813	527.05125	-378.61470	-239.81802	480.17518	-373.18698	-338.68332	652.87075	-765.76909	-222.44358	578.92203	-761.89433	-403.60784	562.56716	-745.40103	-283.99202	488.32402	-727.95373	-342.07553	742.53488	-435.98850	-542.90629	799.82609	-511.94312	-355.58777	742.44899	-657.78686	-543.03829	802.71511	-592.18173	-291.43859	1196.70061	-489.07674	-229.72954	1142.44444	-367.41426	-257.89253	1180.89482	-613.98128	-185.64415	1087.10630	-474.40118	-188.33156	1094.87768	-516.46138	-189.65751	1074.78784	-289.96741	-207.72422	893.88376	-168.47698	-171.58566	944.75924	-134.36453	-79.28189	907.94170	-133.95401	21.00206	805.61537	-112.17649	12.33315	812.74911	-73.79047	-255.81780	1166.98129	-720.44300	-263.91759	1025.46553	-893.42682	-262.22071	1094.68272	-906.58486	-151.11404	1097.59142	-926.95490	-28.81057	1067.41286	-944.30893	-39.89097	1058.43799	-981.70649	-437.76074	668.50699	-442.75666	-441.01726	669.27925	-650.23613	-425.59739	680.13138	-468.33122	-425.82870	685.41669	-614.89477	
160	1.59000000	-138.19569	415.34049	-402.37371	-99.36885	343.40706	-411.85438	-311.62694	92.03004	-443.63306	-378.69665	73.77230	-488.48089	-218.31390	39.67061	-425.97234	-174.04158	52.91475	-480.90109	-123.36598	461.39157	-757.19283	-82.40169	372.88160	-753.77199	-220.06500	103.95871	-775.83707	-284.11432	66.42302	-737.25718	-123.35379	44.29656	-800.48314	-75.03560	55.58204	-744.31811	-163.06553	248.51543	-415.72164	-156.25121	380.68697	-377.55419	-228.38559	289.52318	-381.81078	-154.64293	412.34407	-791.72616	-192.00980	295.01778	-806.14553	-301.24250	598.76860	-353.74623	-209.63469	532.61748	-366.73498	-274.87284	446.83615	-405.27860	-369.81934	512.86614	-382.34330	-232.94257	466.30151	-377.65134	-335.43523	641.10327	-765.13497	-217.02205	571.18567	-761.85630	-397.03763	548.29116	-745.18007	-274.59636	478.64780	-728.08027	-339.81169	729.72955	-434.11247	-538.95722	785.81308	-512.33531	-349.51441	728.97796	-653.27176	-538.94843	788.20275	-593.28634	-282.73074	1180.78756	-490.11926	-221.28935	1125.87839	-367.90989	-247.67823	1163.54134	-615.12591	-178.24095	1070.73375	-477.27209	-179.28892	1077.86616	-517.69378	-180.64602	1056.31110	-292.07310	-201.09387	874.15847	-173.87993	-163.87085	923.25543	-139.17666	-71.88164	885.04627	-140.26506	26.55234	780.02318	-120.90567	18.68396	787.23531	-82.68196	-243.77396	1148.24602	-721.21256	-251.11462	1004.01480	-891.89370	-246.93907	1074.00402	-907.27529	-134.90117	1071.87569	-926.49915	-14.10651	1037.22276	-942.21438	-24.97029	1028.13472	-979.56686	-434.96432	655.26631	-440.99921	-434.58728	655.21920	-648.50935	-421.22439	668.23167	-465.79108	-421.19831	672.50852	-610.51101	
161	1.60000000	-131.26169	410.27085	-404.07656	-93.22160	339.74909	-413.63266	-311.05492	91.79230	-443.29933	-378.76283	73.79812	-488.21472	-218.34709	39.52454	-425.91130	-173.97678	52.90473	-480.88769	-116.91900	455.51080	-757.82465	-77.14002	368.52420	-757.13202	-219.48561	102.97080	-774.11225	-284.27823	65.59073	-735.21563	-123.62542	44.59589	-800.39395	-74.70847	56.03352	-745.20076	-158.45506	245.85337	-416.12415	-149.56901	377.94559	-379.62522	-221.43291	286.25796	-383.71165	-151.36597	407.75326	-789.92620	-188.99314	291.20715	-805.44029	-295.21516	585.00132	-354.36831	-202.81386	520.79601	-368.09383	-267.24971	434.49063	-407.50790	-362.96885	499.56283	-385.43688	-225.36047	454.53727	-379.75250	-332.25382	629.74648	-764.37322	-211.77329	563.45101	-762.27846	-390.81208	534.71466	-745.46188	-266.11280	469.18885	-728.24938	-337.68767	715.98398	-433.85203	-535.21655	772.44418	-511.54799	-344.12421	716.86739	-649.93337	-535.60398	774.41960	-593.53492	-274.20569	1165.34375	-491.49562	-213.69273	1110.77114	-368.35301	-237.67181	1147.00541	-616.56446	-171.43370	1056.20248	-480.85284	-171.69153	1062.25409	-518.90357	-172.69244	1039.29626	-294.00482	-195.37831	855.49606	-178.10714	-156.47854	903.16750	-143.77652	-65.25397	863.22578	-147.20243	31.51364	756.18824	-130.52067	24.53664	763.16996	-92.17032	-231.83703	1130.47196	-722.16049	-239.16481	984.23062	-891.19990	-231.77795	1054.91523	-907.93354	-119.61160	1047.48778	-925.80548	-0.42134	1009.00970	-939.69543	-10.88260	999.99581	-977.24428	-432.09627	641.33391	-440.57680	-429.44506	642.66455	-648.06144	-417.22899	657.16506	-464.28697	-417.90286	660.59719	-606.92943	
162	1.61000000	-124.44660	405.44591	-406.11494	-87.47816	335.21484	-415.37302	-310.46434	91.91197	-443.08492	-378.57473	74.40333	-488.09365	-218.34256	39.41618	-425.90737	-173.83768	52.81276	-480.89252	-110.65424	450.61732	-759.60605	-71.52659	364.51217	-759.18357	-218.61850	102.28475	-774.09412	-284.31863	65.23521	-734.99221	-123.49004	44.46511	-800.84661	-74.46217	56.03373	-745.96266	-154.32289	242.88063	-417.70829	-143.14142	374.18799	-380.80407	-215.77694	283.07406	-385.01811	-146.14581	404.34618	-789.30323	-185.14286	288.70579	-805.46085	-290.82762	573.91748	-355.71877	-196.91586	513.06584	-369.10699	-259.13000	425.31707	-408.95837	-356.39331	487.84687	-386.92629	-217.82368	446.58841	-380.48823	-328.69290	619.12289	-763.98914	-206.10700	556.21616	-763.19855	-384.48964	522.21695	-746.04713	-257.98944	460.13538	-728.91132	-335.34939	701.75582	-434.77233	-531.63380	759.99325	-510.32325	-339.62819	705.58671	-648.70554	-532.62586	761.27418	-593.06549	-266.21578	1150.15746	-493.36576	-206.74138	1096.53656	-369.53169	-228.27460	1131.26298	-618.20612	-164.94612	1042.15105	-484.07775	-164.83696	1047.27260	-519.54407	-165.72517	1023.44514	-295.63473	-190.27809	838.22411	-181.55607	-149.28621	884.62513	-147.80244	-59.30976	842.66304	-154.25448	36.06029	734.22126	-140.25784	30.01540	740.71469	-101.90575	-219.95027	1113.36373	-723.22276	-228.13907	966.11223	-891.44193	-217.12876	1036.93286	-908.53584	-105.50774	1025.02733	-924.68427	12.09006	983.09318	-936.51541	2.24107	974.65009	-974.30164	-429.00160	627.24619	-441.35451	-425.66091	631.15875	-648.79474	-413.88534	646.80627	-463.76157	-415.58077	648.99203	-604.98444	
